<svg width="3000" height="668" viewBox="0 0 3000 668" fill="none" xmlns="http://www.w3.org/2000/svg">
<path d="M1996.67 217.293C1945.64 226.202 1894.64 272.807 1877.79 321.757C1860 375.569 1842.85 453.154 1862.51 509.608C1882.43 566.263 1932.82 588.284 1989.17 593.11C2017.27 595.63 2046.14 590.172 2072.63 580.283C2093.9 571.891 2110.32 557.417 2124.67 540.088C2169.49 484.945 2177.99 379.889 2149.14 312.5C2123.98 259.707 2059.35 210.942 1997.38 217.198L1996.67 217.293ZM1949.93 131.22C2070.58 117.903 2201.35 185.679 2243.49 301.636C2264.92 359.744 2258.48 425.735 2240.53 484.393C2195.41 645.686 2019.87 682.224 1877.07 630.138C1785.94 599.681 1739.79 532.968 1741.7 435.49C1742.79 374.696 1758.03 313.361 1781.64 257.306C1810.26 185.826 1871.79 137.953 1949.12 131.311L1949.93 131.22Z" fill="#F4F3EB"/>
<path d="M1464.69 146.902C1424.49 152.782 1388.22 182.314 1363.89 212.715C1333.36 254.735 1321.94 310.181 1319.65 364.143C1317.54 423.069 1336.82 462.822 1392.87 483.551C1444.75 502.377 1509.24 507.297 1553.68 471.64C1623.14 414.993 1638.21 294.282 1591.8 216.874C1566.13 171.008 1517.72 140.212 1465.45 146.803L1464.69 146.902ZM1256.69 483.496C1188.76 407.802 1197.25 317.645 1237.97 230.917C1269.84 167.884 1319.52 104.677 1387.14 81.4282C1442.58 66.3541 1549.4 69.4108 1598.74 100.708C1625.37 116.852 1646.11 141.037 1664.74 166.3C1698.27 210.907 1719.76 262.353 1720.68 314.782C1721.68 346.368 1719.82 379.573 1710.21 409.871C1687.82 478.425 1619.13 541.035 1548.48 563.83C1510.31 576.428 1469.18 574.584 1429.2 568.877C1364.15 559.285 1299.65 534.006 1257.21 484.112L1256.69 483.496Z" fill="#F4F3EB"/>
<path d="M231.049 58.0285C259.907 55.6234 298.875 57.7125 319.922 76.3843C337.066 91.3833 336.013 119.64 318.337 133.79C292.302 155.613 251.801 153.962 218.862 157.927C164.406 159.985 88.9945 200.393 125.037 262.083C140.012 286.908 173.416 303.759 201.876 311.124C316.366 342.161 481.258 331.4 573.23 403.678C612.032 437.116 621.507 492.053 599.458 538.618C576.952 592.173 534.195 612.95 482.031 629.343C369.307 665.616 230.513 659.242 114.619 623.21C61.4967 606.623 8.13749 565.769 1.33994 507.095C-0.477741 491.002 2.32566 473.669 12.3722 460.708C41.2263 424.21 102.353 440.101 119.777 481.532C137.327 525.254 144.771 549.928 195.705 561.902C269.347 575.665 354.478 574.172 426.278 557.673C487.097 544.08 502.053 495.015 466.425 446.033C448.859 422.448 421.263 409.286 391.608 400.424C285.004 368.483 143.418 383.561 47.8622 330.124C12.0528 309.288 -7.05055 261.831 2.40452 221.241C7.11629 198.738 20.2461 179.672 38.6792 160.155C66.3031 131.333 94.6802 108.673 129.449 91.8099C160.527 77.1663 195.816 62.0803 230.316 58.1075L231.049 58.0285Z" fill="#F4F3EB"/>
<path d="M490.642 146.094C490.642 181.107 462.304 209.49 427.347 209.49C392.389 209.49 364.047 181.107 364.047 146.094C364.047 111.08 392.389 82.6975 427.347 82.6975C462.304 82.6975 490.642 111.08 490.642 146.094Z" fill="#F4F3EB"/>
<path d="M768.324 83.4834C788.169 102.463 790.657 135.06 788.918 162.23C788.161 199.124 769.081 305.649 792.38 330.383C802.947 342.345 820.465 334.763 832.589 327.109C853.203 313.994 872.838 297.478 891.863 282.088C939.84 242.616 986.205 200.415 1033.9 161.132C1055.22 143.183 1081.54 128.935 1110.23 133.002C1170.76 139.676 1200.91 192.418 1157.78 240.59C1127.58 275.367 1073.62 303.754 1032.51 328.318C1001.78 347.191 942.375 376.506 983.09 414.197C1061.52 487.363 1278.47 484.184 1306.25 583.945C1310.36 609.275 1290.6 631.225 1266.19 637.674C1219.04 651.528 1172.94 626.233 1135.74 599.217C1099.1 573.397 1061.51 548.884 1023.24 523.83C979.947 496.913 936.564 465.943 886.516 453.823C845.593 444.448 814.034 478.786 790.27 507.544C754.236 556.459 780.161 684.63 685.503 664.441C652.529 656.598 645.763 622.623 645.637 593.095C642.53 468.822 666.368 344.967 653.077 221.417C651.543 176.819 639.718 100.137 681.434 71.928C705.265 58.7653 745.999 63.5162 767.74 82.9265L768.324 83.4834Z" fill="#F4F3EB"/>
<path d="M2889.72 641.009C2869.84 616.318 2860.44 581.767 2848.28 552.203C2821.71 481.528 2800.59 407.367 2788.62 332.77C2782.07 291.158 2780.46 247.843 2775.86 205.918C2772.88 185.035 2772.23 162.465 2762.56 144.935C2748.17 125.291 2731.54 158.082 2725.9 171.205C2683.85 267.727 2689.67 373.838 2679.31 476.92C2676.74 496.058 2670.39 516.554 2652.52 525.704C2640.31 532.299 2624.57 532.896 2612.61 527.967C2579.86 513.395 2578.43 464.582 2573.93 433.475C2567.74 399.362 2572.15 253.609 2538.86 245.45C2516.11 243.791 2503.47 282.031 2495.04 299.779C2484.85 324.082 2475.05 350.297 2465.91 375.323C2441.5 439.418 2422.87 501.243 2404.03 566.14C2392.23 602.216 2378.48 648.852 2337.89 660.036C2316.73 665.514 2287.34 660.336 2274.68 643.572C2266.77 633.28 2265.37 620.556 2265.26 606.746C2266.16 565.615 2273.55 524.235 2278.11 483.302C2289.63 405.653 2276.86 327.099 2279.8 249.039C2281.48 223.745 2286.53 194.351 2308.39 180.225C2323.89 169.886 2349.47 168.669 2368.07 176.745C2415.79 199.062 2400.65 262.941 2394.41 308.558C2389.03 335.945 2388.61 364.838 2403.81 323.091C2431.08 250.951 2463.45 67.7358 2566.35 84.8951C2599.14 90.9611 2614.38 121.109 2623.27 151.151C2627.24 163.701 2630.84 173.108 2634.91 172.95C2642.96 171.288 2648.04 148.773 2653.37 133.525C2668.11 91.6245 2677.4 30.4515 2711.98 8.52558C2736.63 -6.05879 2771.95 -0.577292 2793.92 14.7416C2836.98 43.6971 2841.78 138.6 2850.95 187.136C2869.02 285.668 2887.57 385.275 2933.66 475.052C2953.97 514.477 2981.54 555.852 2996.12 597.631C3018.84 673.728 2936.36 687.7 2890.18 641.522L2889.72 641.009Z" fill="#F4F3EB"/>
</svg>
