<svg width="623" height="139" viewBox="0 0 623 139" fill="none" xmlns="http://www.w3.org/2000/svg">
<path d="M414.448 45.1232C403.857 46.9733 393.269 56.6512 389.771 66.8163C386.08 77.9909 382.52 94.1024 386.6 105.826C390.735 117.591 401.196 122.164 412.892 123.166C418.725 123.689 424.717 122.556 430.216 120.502C434.63 118.759 438.038 115.754 441.017 112.155C450.321 100.704 452.086 78.888 446.096 64.894C440.874 53.931 427.458 43.8045 414.596 45.1035L414.448 45.1232ZM404.747 27.2493C429.79 24.4839 456.934 38.5583 465.681 62.6379C470.13 74.7048 468.791 88.4085 465.066 100.589C455.7 134.084 419.263 141.671 389.623 130.855C370.707 124.53 361.128 110.676 361.524 90.4341C361.75 77.8096 364.914 65.0728 369.814 53.4324C375.755 38.5887 388.527 28.6475 404.578 27.2681L404.747 27.2493Z" fill="#F4F3EB"/>
<path d="M304.025 30.5058C295.682 31.7269 288.152 37.8595 283.102 44.1726C276.765 52.8984 274.395 64.4125 273.919 75.6182C273.481 87.8549 277.483 96.1099 289.117 100.415C299.887 104.324 313.272 105.346 322.497 97.9412C336.915 86.1778 340.042 61.1108 330.409 45.0362C325.081 35.5116 315.032 29.1165 304.183 30.4853L304.025 30.5058ZM260.85 100.403C246.751 84.6844 248.513 65.9625 256.964 47.9524C263.58 34.8629 273.892 21.7373 287.929 16.9094C299.436 13.7792 321.609 14.4139 331.851 20.9131C337.378 24.2657 341.682 29.2879 345.55 34.5341C352.509 43.797 356.971 54.4804 357.161 65.3679C357.368 71.927 356.983 78.8223 354.987 85.1141C350.34 99.3501 336.083 112.352 321.418 117.085C313.495 119.702 304.958 119.319 296.659 118.133C283.156 116.141 269.768 110.892 260.96 100.531L260.85 100.403Z" fill="#F4F3EB"/>
<path d="M47.9589 12.0502C53.9489 11.5508 62.0374 11.9846 66.4062 15.862C69.9647 18.9767 69.7462 24.8445 66.0772 27.7829C60.6731 32.3147 52.2662 31.9719 45.4291 32.7953C34.1258 33.2226 18.4726 41.6138 25.9538 54.4244C29.0622 59.5795 35.9959 63.0789 41.9033 64.6083C65.668 71.0535 99.8946 68.8187 118.985 83.828C127.039 90.7718 129.006 102.18 124.429 111.85C119.758 122.971 110.883 127.286 100.055 130.69C76.657 138.222 47.8475 136.899 23.7915 129.416C12.7649 125.972 1.6891 117.488 0.27813 105.304C-0.0991646 101.962 0.482737 98.3625 2.56809 95.671C8.55734 88.0917 21.2454 91.3918 24.862 99.9953C28.5048 109.075 30.05 114.199 40.6225 116.685C55.9082 119.543 73.5789 119.233 88.4824 115.807C101.107 112.984 104.211 102.795 96.8157 92.6235C93.1696 87.7259 87.4414 84.9926 81.286 83.1523C59.1582 76.5194 29.7693 79.6505 9.93475 68.5538C2.5018 64.227 -1.46348 54.3719 0.499106 45.943C1.47713 41.2701 4.20248 37.3107 8.02863 33.2578C13.7625 27.2728 19.6527 22.5671 26.8696 19.0653C33.3205 16.0244 40.6454 12.8917 47.8066 12.0666L47.9589 12.0502Z" fill="#F4F3EB"/>
<path d="M101.842 30.338C101.842 37.6089 95.9604 43.5029 88.7042 43.5029C81.4481 43.5029 75.5652 37.6089 75.5652 30.338C75.5652 23.067 81.4481 17.173 88.7042 17.173C95.9604 17.173 101.842 23.067 101.842 30.338Z" fill="#F4F3EB"/>
<path d="M159.481 17.3362C163.6 21.2776 164.116 28.0466 163.755 33.6889C163.598 41.3502 159.638 63.4714 164.474 68.6076C166.667 71.0917 170.304 69.5171 172.82 67.9277C177.099 65.2042 181.175 61.7746 185.124 58.5787C195.082 50.3819 204.706 41.6183 214.607 33.4609C219.032 29.7336 224.494 26.7747 230.45 27.6194C243.015 29.0053 249.273 39.9577 240.319 49.9612C234.051 57.1829 222.851 63.0777 214.318 68.1787C207.938 72.0979 195.609 78.1855 204.06 86.0124C220.34 101.206 265.371 100.546 271.137 121.262C271.992 126.523 267.89 131.081 262.824 132.42C253.037 135.297 243.466 130.044 235.745 124.434C228.14 119.072 220.337 113.982 212.394 108.779C203.407 103.189 194.402 96.7581 184.014 94.2412C175.52 92.2943 168.969 99.425 164.036 105.397C156.557 115.555 161.938 142.171 142.29 137.978C135.445 136.35 134.041 129.294 134.015 123.163C133.37 97.356 138.318 71.6362 135.559 45.9796C135.241 36.7183 132.786 20.7945 141.445 14.9366C146.392 12.2032 154.847 13.1898 159.36 17.2206L159.481 17.3362Z" fill="#F4F3EB"/>
<path d="M599.819 133.112C595.691 127.985 593.74 120.81 591.218 114.671C585.702 99.9946 581.319 84.594 578.834 69.1033C577.473 60.462 577.14 51.4672 576.184 42.7611C575.566 38.4245 575.432 33.7376 573.424 30.0973C570.438 26.0181 566.985 32.8273 565.815 35.5525C557.087 55.5964 558.293 77.6315 556.145 99.0375C555.61 103.012 554.292 107.268 550.583 109.168C548.049 110.538 544.782 110.662 542.298 109.638C535.5 106.612 535.204 96.4756 534.269 90.0157C532.986 82.9317 533.901 52.6646 526.99 50.9702C522.268 50.6258 519.645 58.5668 517.895 62.2523C515.78 67.2991 513.746 72.7429 511.849 77.9398C506.781 91.2499 502.914 104.088 499.004 117.565C496.554 125.057 493.701 134.741 485.275 137.064C480.882 138.201 474.782 137.126 472.155 133.645C470.513 131.507 470.221 128.865 470.199 125.997C470.386 117.456 471.921 108.863 472.867 100.363C475.259 84.2381 472.607 67.9257 473.218 51.7157C473.566 46.463 474.614 40.3591 479.152 37.4256C482.37 35.2786 487.679 35.026 491.539 36.7031C501.445 41.3374 498.302 54.6024 497.008 64.0753C495.891 69.7627 495.803 75.7625 498.959 67.0933C504.618 52.1126 511.337 14.0661 532.697 17.6294C539.504 18.889 542.667 25.1496 544.511 31.3881C545.336 33.9943 546.084 35.9478 546.928 35.915C548.599 35.5697 549.652 30.8944 550.76 27.728C553.819 19.0268 555.748 6.32358 562.925 1.77043C568.042 -1.25817 575.372 -0.119881 579.933 3.06126C588.871 9.07418 589.868 28.7818 591.772 38.8608C595.522 59.3221 599.373 80.0065 608.939 98.6496C613.154 106.837 618.878 115.429 621.904 124.104C626.62 139.907 609.5 142.808 599.914 133.219L599.819 133.112Z" fill="#F4F3EB"/>
</svg>
